<svg id="Capa_1" enable-background="new 0 0 512 512" height="512" viewBox="0 0 512 512" width="512" xmlns="http://www.w3.org/2000/svg"><g><path d="m420.11 168.13-21.49 149.93c-6 41.81-41.83 72.94-84.15 72.94h-225.34v31c0 16.61 13.52 30.12 30.13 30.12h189.34c-3.821 9.501-3.836 20.222 0 29.76h-189.34c-33.02 0-59.88-26.86-59.88-59.88-.01-38.38-.12-325.28-.12-331h-44.26c-8.28 0-15-6.72-15-15s6.72-15 15-15h59.26c8.28 0 15 6.72 15 15v75h316c9.13 0 16.14 8.1 14.85 17.13z" fill="#7f94fd"/><path d="m308.6 452.12c-3.82 9.5-3.84 20.22 0 29.76h-82.6v-29.76z" fill="#6665ff"/><path d="m420.11 168.13-21.49 149.93c-6 41.81-41.83 72.94-84.15 72.94h-88.47v-240h179.26c9.13 0 16.14 8.1 14.85 17.13z" fill="#6665ff"/><path d="m166.05 211c-8.284 0-15 6.716-15 15v90c0 8.284 6.716 15 15 15s15-6.716 15-15v-90c0-8.284-6.716-15-15-15z" fill="#9cb1ff"/><path d="m226.05 211c-8.284 0-15 6.716-15 15v90c0 8.284 6.716 15 15 15s15-6.716 15-15v-90c0-8.284-6.716-15-15-15z" fill="#9cb1ff"/><path d="m241.05 226v90c0 8.28-6.72 15-15 15h-.05v-120h.05c8.28 0 15 6.72 15 15z" fill="#7f94fd"/><path d="m286.05 217c-8.284 0-15 6.716-15 15v84c0 8.284 6.716 15 15 15s15-6.716 15-15v-84c0-8.284-6.716-15-15-15z" fill="#7f94fd"/><circle cx="345.732" cy="467" fill="#00225f" r="45"/><circle cx="345.732" cy="467" fill="#00457f" r="15"/><circle cx="165.632" cy="467" fill="#00457f" r="45"/><circle cx="165.632" cy="467" fill="#3869ad" r="15"/><g><circle cx="346" cy="163.705" fill="#f25a3c" r="105"/><path d="m451 163.7c0 57.9-47.1 105-105 105v-210c57.9 0 105 47.11 105 105z" fill="#e43539"/><path d="m342.257 119.749-15 5c-7.859 2.62-12.106 11.115-9.487 18.974 3.494 10.481 14.13 10.228 14.23 10.261v39.721c0 8.284 6.716 15 15 15s15-6.716 15-15v-59.725c0-10.225-10.034-17.468-19.743-14.231z" fill="#e9f3fb"/><path d="m362 133.98v59.72c0 8.29-6.72 15-15 15-.34 0-.67-.01-1-.04v-89.65c8.39-.59 16 6.06 16 14.97z" fill="#d6e9f8"/><path d="m452.617 251.525c-5.856-5.857-15.354-5.858-21.213 0-5.857 5.858-5.858 15.355 0 21.213l11.349 11.349c5.857 5.858 15.354 5.858 21.213 0 5.858-5.858 5.858-15.355 0-21.213z" fill="#e43539"/><path d="m497 150.705h-16c-8.284 0-15 6.716-15 15s6.716 15 15 15h16c8.284 0 15-6.716 15-15s-6.716-15-15-15z" fill="#e43539"/><path d="m346.013 0c-8.284 0-15 6.716-15 15v16c0 8.284 6.716 15 15 15s15-6.716 15-15v-16c0-8.284-6.716-15-15-15z" fill="#f25a3c"/><path d="m361.01 15v16c0 8.28-6.71 15-15 15h-.01v-46h.01c8.29 0 15 6.72 15 15z" fill="#e43539"/><path d="m249.842 48.611c-5.859-5.857-15.356-5.857-21.214.001-5.857 5.858-5.856 15.355.001 21.213l11.314 11.313c5.859 5.857 15.356 5.858 21.214-.001 5.857-5.858 5.856-15.355-.001-21.213z" fill="#f25a3c"/><path d="m452.759 80.475 11.349-11.349c5.858-5.858 5.857-15.355 0-21.213-5.857-5.857-15.355-5.857-21.213 0l-11.349 11.349c-5.858 5.858-5.858 15.355 0 21.213s15.355 5.858 21.213 0z" fill="#e43539"/></g></g></svg>